<svg version="1.2" baseProfile="tiny-ps" xmlns="http://www.w3.org/2000/svg" viewBox="0 0 1500 1500" width="1500" height="1500">
	<title>2517913-ai</title>
	<style>
		tspan { white-space:pre }
		.shp0 { fill: #eaf9f8 } 
		.shp1 { fill: #e03c03 } 
		.shp2 { fill: #ff6224 } 
		.shp3 { fill: #ffc947 } 
		.shp4 { fill: #20c3c5 } 
		.shp5 { fill: #ffffff } 
		.shp6 { fill: #383873 } 
		.shp7 { fill: #86bfbc } 
		.shp8 { fill: #b8e3e2 } 
		.shp9 { fill: #9fccc9 } 
		.shp10 { opacity: 0.149;mix-blend-mode: overlay;fill: none;stroke: #000000;stroke-linecap:round;stroke-width: 2.455 } 
		.shp11 { fill: #382424 } 
		.shp12 { fill: #ffad94 } 
		.shp13 { opacity: 0.251;mix-blend-mode: overlay;fill: #000000 } 
		.shp14 { fill: #0c2059 } 
		.shp15 { fill: #2e4780 } 
		.shp16 { opacity: 0.149;mix-blend-mode: overlay;fill: #000000 } 
		.shp17 { fill: #169799 } 
		.shp18 { fill: none;stroke: #000000;stroke-linecap:round;stroke-width: 2.455 } 
		.shp19 { fill: none;stroke: #000000;stroke-linecap:round;stroke-width: 2.455;stroke-dasharray: 12,12 } 
		.shp20 { fill: #000000 } 
		.txt21 { font-size: 100px;fill: #ffffff;font-weight: 400;font-family: "FengardoNeue", "Fengardo Neue" } 
	</style>
	<g id="OBJECTS">
		<g id="&lt;Group&gt;">
			<path id="BACKGROUND" class="shp0" d="M1253.27 696.82C1183.24 801.66 1033.8 1125.93 1070.56 1246.27L534.44 1246.39C482.8 1207.94 431.89 1155.29 381.71 1088.43C368.04 1070.21 354.43 1050.57 341.4 1029.63C327.55 1007.43 314.34 983.76 302.33 958.71C267.44 886.08 242.54 801.91 241.53 708.87C238.02 386.82 516.76 87.5 895.96 208.28C1275.15 329.07 1323.27 591.97 1253.27 696.82Z" />
			<g id="TABLE">
				<g id="&lt;Group&gt;">
					<path id="&lt;Path&gt;" class="shp1" d="M917.83 1250.07C916.76 1250.07 915.69 1249.6 914.96 1248.69L629.05 893.21C627.78 891.62 628.03 889.31 629.61 888.03C631.2 886.76 633.52 887.01 634.79 888.59L920.7 1244.07C921.98 1245.66 921.72 1247.98 920.14 1249.25C919.46 1249.8 918.64 1250.07 917.83 1250.07Z" />
				</g>
				<g id="&lt;Group&gt;">
					<path id="&lt;Path&gt;" class="shp2" d="M474.33 1250.07C473.52 1250.07 472.71 1249.8 472.03 1249.25C470.44 1247.98 470.19 1245.66 471.47 1244.07L757.37 888.59C758.65 887.01 760.97 886.76 762.55 888.03C764.14 889.31 764.39 891.62 763.11 893.21L477.21 1248.69C476.48 1249.6 475.41 1250.07 474.33 1250.07Z" />
				</g>
				<g id="&lt;Group&gt;">
					<path id="&lt;Path&gt;" class="shp2" d="M760.24 1250.07C759.17 1250.07 758.1 1249.6 757.37 1248.69L471.47 893.21C470.19 891.62 470.44 889.31 472.03 888.03C473.62 886.76 475.93 887.01 477.21 888.59L763.11 1244.07C764.39 1245.66 764.14 1247.98 762.55 1249.25C761.87 1249.8 761.06 1250.07 760.24 1250.07Z" />
				</g>
				<path id="&lt;Path&gt;" class="shp1" d="M525 900.34L392.17 900.34C386.96 900.34 382.73 896.11 382.73 890.9C382.73 885.69 386.96 881.46 392.17 881.46L525 881.46C530.21 881.46 534.43 885.69 534.43 890.9C534.43 896.11 530.21 900.34 525 900.34Z" />
				<path id="&lt;Path&gt;" class="shp2" d="M907.18 900.34L527.53 900.34C522.32 900.34 518.1 896.11 518.1 890.9C518.1 885.69 522.32 881.46 527.53 881.46L907.18 881.46L907.18 900.34Z" />
				<g id="&lt;Group&gt;">
					<path id="&lt;Path&gt;" class="shp1" d="M627.6 1068.64C627.6 1074.34 622.98 1078.95 617.29 1078.95C611.6 1078.95 606.98 1074.34 606.98 1068.64C606.98 1062.95 611.6 1058.33 617.29 1058.33C622.98 1058.33 627.6 1062.95 627.6 1068.64Z" />
				</g>
				<path id="&lt;Path&gt;" class="shp3" d="M785.18 1068.64C785.18 1074.34 780.57 1078.95 774.88 1078.95C769.18 1078.95 764.57 1074.34 764.57 1068.64C764.57 1062.95 769.18 1058.33 774.88 1058.33C780.57 1058.33 785.18 1062.95 785.18 1068.64Z" />
			</g>
			<g id="CONFIG">
				<path id="&lt;Path&gt;" class="shp4" d="M648.02 599.71L514.2 599.71C507.59 599.71 502.24 594.36 502.24 587.75L502.24 488.23C502.24 481.62 507.59 476.26 514.2 476.26L648.02 476.26C654.63 476.26 659.99 481.62 659.99 488.23L659.99 587.75C659.99 594.36 654.63 599.71 648.02 599.71Z" />
				<path id="&lt;Compound Path&gt;" fill-rule="evenodd" class="shp5" d="M619.07 534.5L619.07 542.11C619.07 544.17 617.4 545.84 615.34 545.84L610.71 545.84C610.03 548.79 608.91 551.56 607.44 554.11L610.42 557.09C611.88 558.55 611.88 560.91 610.42 562.37L605.04 567.75C603.58 569.2 601.22 569.2 599.77 567.75L596.86 564.84C594.25 566.4 591.37 567.57 588.33 568.28L588.33 572.22C588.33 574.28 586.66 575.95 584.59 575.95L576.99 575.95C574.93 575.95 573.26 574.28 573.26 572.22L573.26 568C570.31 567.18 567.54 565.92 565.03 564.28L562.01 567.29C560.55 568.75 558.19 568.75 556.73 567.29L551.35 561.92C549.9 560.46 549.9 558.1 551.35 556.64L554.83 553.17C553.51 550.69 552.54 548.01 551.97 545.2L546.88 545.2C544.82 545.2 543.15 543.53 543.15 541.47L543.15 533.87C543.15 531.8 544.82 530.13 546.88 530.13L552.69 530.13C553.47 527.6 554.55 525.21 555.93 523.01L551.8 518.88C550.35 517.43 550.35 515.06 551.8 513.61L557.18 508.23C558.64 506.77 561 506.77 562.46 508.23L566.92 512.69C569.1 511.48 571.43 510.55 573.9 509.91L573.9 503.75C573.9 501.69 575.57 500.02 577.63 500.02L585.23 500.02C587.29 500.02 588.96 501.69 588.96 503.75L588.96 509.84C591.5 510.49 593.91 511.48 596.15 512.74L600.22 508.68C601.67 507.22 604.04 507.22 605.49 508.68L610.87 514.06C612.33 515.52 612.33 517.88 610.87 519.33L607.05 523.15C608.51 525.5 609.63 528.07 610.39 530.77L615.34 530.77C617.4 530.77 619.07 532.44 619.07 534.5ZM600.24 542.76C602.79 529.25 591.19 517.65 577.68 520.2C570.13 521.63 564.04 527.72 562.62 535.26C560.06 548.77 571.67 560.38 585.18 557.82C592.72 556.4 598.81 550.31 600.24 542.76Z" />
			</g>
			<g id="&lt; /&gt;">
				<path id="&lt;Path&gt;" class="shp2" d="M849.49 531.52L715.67 531.52C709.06 531.52 703.7 526.16 703.7 519.55L703.7 420.03C703.7 413.42 709.06 408.07 715.67 408.07L849.49 408.07C856.1 408.07 861.45 413.42 861.45 420.03L861.45 519.55C861.45 526.16 856.1 531.52 849.49 531.52Z" />
				<g id="&lt;Group&gt;">
					<g id="&lt;Group&gt;">
						<g id="&lt;Group&gt;">
							<path id="&lt;Path&gt;" class="shp5" d="M755.94 490.54C755 490.54 754.06 490.16 753.34 489.39L736.71 471.59C735.27 470.05 735.27 467.56 736.71 466.02L753.62 447.93C755.06 446.39 757.39 446.39 758.83 447.93C760.27 449.46 760.27 451.96 758.83 453.5L744.52 468.8L758.55 483.81C759.99 485.35 759.99 487.85 758.55 489.39C757.83 490.16 756.89 490.54 755.94 490.54Z" />
						</g>
						<g id="&lt;Group&gt;">
							<path id="&lt;Path&gt;" class="shp5" d="M809.21 490.54C808.27 490.54 807.33 490.16 806.61 489.39C805.17 487.85 805.17 485.35 806.61 483.81L820.63 468.8L806.33 453.5C804.89 451.96 804.89 449.47 806.33 447.93C807.76 446.39 810.1 446.39 811.53 447.93L828.44 466.02C829.13 466.76 829.52 467.76 829.52 468.8C829.52 469.85 829.13 470.85 828.44 471.59L811.81 489.39C811.1 490.16 810.15 490.54 809.21 490.54Z" />
						</g>
					</g>
					<g id="&lt;Group&gt;">
						<path id="&lt;Path&gt;" class="shp5" d="M774.32 495.43C773.86 495.43 773.39 495.34 772.94 495.14C771.05 494.32 770.15 492.02 770.91 490L787.42 446.61C788.19 444.6 790.32 443.62 792.22 444.45C794.1 445.27 795.01 447.57 794.24 449.59L777.74 492.97C777.16 494.5 775.78 495.43 774.32 495.43Z" />
					</g>
				</g>
			</g>
			<g id="CODE">
				<g id="&lt;Group&gt;">
					<g id="&lt;Group&gt;">
						<path id="&lt;Path&gt;" class="shp5" d="M970.29 555.24L638.25 555.24L638.25 545.05C638.25 542.3 640.48 540.07 643.23 540.07L965.31 540.07C968.06 540.07 970.29 542.3 970.29 545.05L970.29 555.24Z" />
					</g>
					<path id="&lt;Path&gt;" class="shp6" d="M961.01 732.25L647.53 732.25C642.41 732.25 638.25 728.1 638.25 722.98L638.25 555.24L970.29 555.24L970.29 722.98C970.29 728.1 966.14 732.25 961.01 732.25Z" />
					<g id="&lt;Group&gt;">
						<g id="&lt;Group&gt;">
							<path id="&lt;Path&gt;" class="shp2" d="M954.35 547.65C954.35 548.94 953.3 549.99 952.02 549.99C950.73 549.99 949.68 548.94 949.68 547.65C949.68 546.36 950.73 545.32 952.02 545.32C953.3 545.32 954.35 546.36 954.35 547.65Z" />
							<path id="&lt;Path&gt;" class="shp2" d="M938.3 547.65C938.3 548.94 937.26 549.99 935.97 549.99C934.68 549.99 933.64 548.94 933.64 547.65C933.64 546.36 934.68 545.32 935.97 545.32C937.26 545.32 938.3 546.36 938.3 547.65Z" />
							<path id="&lt;Path&gt;" class="shp2" d="M922.26 547.65C922.26 548.94 921.21 549.99 919.92 549.99C918.64 549.99 917.59 548.94 917.59 547.65C917.59 546.36 918.64 545.32 919.92 545.32C921.21 545.32 922.26 546.36 922.26 547.65Z" />
						</g>
					</g>
					<path id="&lt;Path&gt;" class="shp4" d="M839.84 579.16L655.47 579.16C653.69 579.16 652.26 577.72 652.26 575.95C652.26 574.18 653.69 572.74 655.47 572.74L839.84 572.74C841.62 572.74 843.05 574.18 843.05 575.95C843.05 577.72 841.62 579.16 839.84 579.16Z" />
					<path id="&lt;Path&gt;" class="shp4" d="M839.84 599.58L655.47 599.58C653.69 599.58 652.26 598.14 652.26 596.37C652.26 594.6 653.69 593.16 655.47 593.16L839.84 593.16C841.62 593.16 843.05 594.6 843.05 596.37C843.05 598.14 841.62 599.58 839.84 599.58Z" />
					<path id="&lt;Path&gt;" class="shp4" d="M751.89 620L655.47 620C653.69 620 652.26 618.57 652.26 616.79C652.26 615.02 653.69 613.58 655.47 613.58L751.89 613.58C753.66 613.58 755.09 615.02 755.09 616.79C755.09 618.57 753.66 620 751.89 620Z" />
					<path id="&lt;Path&gt;" class="shp2" d="M839.84 660.85L655.47 660.85C653.69 660.85 652.26 659.41 652.26 657.64C652.26 655.86 653.69 654.43 655.47 654.43L839.84 654.43C841.62 654.43 843.05 655.86 843.05 657.64C843.05 659.41 841.62 660.85 839.84 660.85Z" />
					<path id="&lt;Path&gt;" class="shp2" d="M751.89 681.27L655.47 681.27C653.69 681.27 652.26 679.83 652.26 678.06C652.26 676.29 653.69 674.85 655.47 674.85L751.89 674.85C753.66 674.85 755.09 676.29 755.09 678.06C755.09 679.83 753.66 681.27 751.89 681.27Z" />
					<path id="&lt;Path&gt;" class="shp4" d="M751.89 701.69L655.47 701.69C653.69 701.69 652.26 700.25 652.26 698.48C652.26 696.71 653.69 695.27 655.47 695.27L751.89 695.27C753.66 695.27 755.09 696.71 755.09 698.48C755.09 700.25 753.66 701.69 751.89 701.69Z" />
					<path id="&lt;Path&gt;" class="shp5" d="M839.84 620L770.56 620C768.78 620 767.35 618.57 767.35 616.79C767.35 615.02 768.78 613.58 770.56 613.58L839.84 613.58C841.62 613.58 843.05 615.02 843.05 616.79C843.05 618.57 841.62 620 839.84 620Z" />
					<path id="&lt;Path&gt;" class="shp2" d="M931.37 574.15L882.37 623.14C881.12 624.39 879.09 624.39 877.83 623.14C876.58 621.88 876.58 619.85 877.83 618.6L926.83 569.61C928.08 568.35 930.11 568.35 931.37 569.61C932.62 570.86 932.62 572.89 931.37 574.15Z" />
					<path id="&lt;Path&gt;" class="shp2" d="M933.49 666.83C933.49 682.78 920.56 695.72 904.6 695.72C888.64 695.72 875.71 682.78 875.71 666.83C875.71 650.87 888.64 637.94 904.6 637.94C920.56 637.94 933.49 650.87 933.49 666.83Z" />
					<path id="&lt;Path&gt;" class="shp4" d="M900.82 686.96C900.82 695.99 893.5 703.32 884.47 703.32C875.43 703.32 868.11 695.99 868.11 686.96C868.11 677.93 875.43 670.61 884.47 670.61C893.5 670.61 900.82 677.93 900.82 686.96Z" />
				</g>
				<path id="&lt;Path&gt;" class="shp6" d="M691.94 719.07L638.25 772.75L638.25 714.34" />
			</g>
			<g id="COMPUTER">
				<path id="&lt;Path&gt;" class="shp7" d="M581.11 788.54L698.9 788.54L741.49 870.52L623.71 870.52L581.11 788.54Z" />
				<path id="&lt;Path&gt;" class="shp5" d="M626.09 864.46L590.82 796.58C590.08 795.16 591.11 793.46 592.72 793.46L694.62 793.46C695.41 793.46 696.15 793.9 696.51 794.61L731.78 862.49C732.52 863.91 731.49 865.61 729.88 865.61L627.99 865.61C627.19 865.61 626.46 865.17 626.09 864.46Z" />
				<path id="&lt;Path&gt;" class="shp8" d="M719.1 881.46L623.71 881.46L623.71 870.52L719.1 870.52L719.1 881.46Z" />
				<path id="&lt;Path&gt;" class="shp9" d="M806.53 875.99C806.53 879.02 804.08 881.46 801.06 881.46L706.92 881.46C703.9 881.46 701.45 879.02 701.45 875.99C701.45 872.97 703.9 870.52 706.92 870.52L801.06 870.52C804.08 870.52 806.53 872.97 806.53 875.99Z" />
				<path id="&lt;Path&gt;" class="shp8" d="M623.71 881.46L577.98 794.59C577.17 793.06 577.6 791.18 578.98 790.15L581.11 788.54L623.71 870.52L623.71 881.46Z" />
				<path id="&lt;Path&gt;" class="shp9" d="M666.59 877.45L656.09 877.45L656.09 875.63L666.59 875.63L666.59 877.45Z" />
				<path id="&lt;Path&gt;" class="shp9" d="M679.79 877.45L669.29 877.45L669.29 875.63L679.79 875.63L679.79 877.45Z" />
				<path id="&lt;Path&gt;" class="shp9" d="M692.99 877.45L682.49 877.45L682.49 875.63L692.99 875.63L692.99 877.45Z" />
			</g>
			<g id="PROGRAMMER">
				<path id="&lt;Path&gt;" class="shp6" d="M838.45 1030.98C773.31 1081.69 735.58 1113.49 725.25 1126.37C719.41 1133.69 709.22 1146.5 698.66 1159.64C681.33 1181.22 662.93 1203.72 660.75 1204.26C657.26 1205.14 627.94 1182.82 627.06 1178.01C626.52 1175.01 653.21 1129.19 676.32 1092.36C690.39 1069.97 703.11 1050.87 707.57 1046.74C715.45 1039.44 743.61 1022.96 792.07 997.29L838.45 1030.98Z" />
				<path id="&lt;Path&gt;" class="shp10" d="M652 1188.03C712.85 1101.41 758.55 1050.81 789.1 1036.23" />
				<path id="&lt;Path&gt;" class="shp11" d="M940.28 697.38C939.24 699.74 938.07 702.19 936.74 704.7C929.59 718.35 934.87 732.03 926.72 735.51C926.23 735.71 925.69 735.91 925.08 736.03C914.57 738.36 890.36 724.37 889.3 717.37C888.25 710.37 896.77 698.39 889.3 696.94C884.32 695.97 880.49 699.67 877.81 708.04C871.67 708.68 869.49 698.39 859.42 698.39C857.99 698.39 856.59 698.58 855.24 698.93C850.51 700.11 846.36 703.03 843.7 705.29C842.39 706.38 841.36 707.37 840.61 708.23C834.63 704.45 831.79 698.84 832.06 691.39C832.78 673.69 839.31 660.77 855.05 658.14C856.79 638.45 873 627.94 894.65 627.28C913.63 626.69 916.48 643.75 916.92 648C916.75 644.83 915.87 634.42 911.35 627.28C920.85 626.86 929.23 633.64 927.04 655.74C929.23 649.16 936.89 645.01 942.78 649.82C939.15 649.82 935.58 652.88 932.07 659C936.35 661.74 939.94 665.63 942.85 670.69C946.49 676.95 945.11 686.21 940.28 697.38Z" />
				<path id="&lt;Path&gt;" class="shp12" d="M926.72 735.51L926.48 738.76L925.64 750.25C913.99 760.22 904.85 760.22 898.24 750.25C898.16 750.15 898.12 750.05 898.02 749.95C894.95 745.38 892.17 743.79 889.64 743.49C884.17 742.83 879.75 748.18 875.18 742.39C862.12 725.81 856.91 706.61 855.24 698.93C856.59 698.58 857.99 698.39 859.42 698.39C869.49 698.39 871.67 708.68 877.81 708.04C880.49 699.67 884.32 695.97 889.3 696.94C896.77 698.39 888.25 710.37 889.3 717.37C889.77 720.49 894.85 725 901.28 728.83C908.77 733.33 918.1 736.89 924.02 736.2C924.39 736.15 924.73 736.1 925.08 736.03C925.69 735.91 926.23 735.71 926.72 735.51Z" />
				<path id="&lt;Path&gt;" class="shp13" d="M929.45 756.9C924.19 760.49 916.75 762.57 907.13 763.16L895.32 761.42C892.03 756.64 891.15 752.91 892.69 750.25C893.13 749.46 894.24 748.38 895.81 747.1C898.98 744.5 904.08 741.16 909.36 738.41C914.81 735.59 920.44 733.35 924.49 733.11C934.41 732.54 937.33 751.5 929.45 756.9Z" />
				<path id="&lt;Path&gt;" class="shp4" d="M927.11 948.42C909.53 951.81 872.33 941.45 854.53 933.45C849.28 931.09 845.69 928.93 844.83 927.41C841.42 921.39 844.86 916.77 853.33 897.67C854.29 895.51 855.29 893.18 856.37 890.65C862.12 877.12 862.14 848.27 862.12 823.39C862.05 802.11 861.95 783.74 865.34 780.47C870.23 775.76 884.89 765.68 909.31 750.25L916.61 788.26C919.36 801.12 922.18 815.95 925.08 832.75C933.08 879.13 941.87 945.58 927.11 948.42Z" />
				<path id="&lt;Path&gt;" class="shp6" d="M939.37 965.34C939.37 967.09 921.86 1007.92 907.18 1013.76C897.39 1017.66 863 1017.46 804 1013.17L760.24 1041.78L769.4 1127.97L775.79 1188.03L775.98 1189.97C762.6 1198.71 728.89 1201.06 725.25 1193.53C725.24 1193.51 725.23 1193.49 725.23 1193.48C721.72 1185.89 668.04 1024.27 689.06 996.26C703.06 977.6 754.98 954.64 844.83 927.41C848.34 929.64 852.42 931.65 856.86 933.45C871.84 939.58 890.87 943.44 905.36 945.7C910.93 946.56 915.82 947.2 919.55 947.64C922.69 948.02 925.22 948.28 927.11 948.42C935.28 958.52 939.37 964.16 939.37 965.34Z" />
				<path id="&lt;Path&gt;" class="shp14" d="M781.53 1246.27L667.75 1246.27C667.18 1244.26 667.94 1242.22 669.66 1240.16C674.28 1234.61 685.84 1229.03 696.99 1224.22C707.57 1219.65 717.74 1215.72 721.15 1213.02C729.18 1206.66 725.47 1194.29 725.25 1193.53C726.48 1196.06 731.12 1197.48 737.26 1197.9C749.32 1198.76 767.12 1195.76 775.98 1189.97L775.79 1188.03C779.17 1194.51 780.77 1226.55 781.31 1240.16C781.41 1242.66 781.48 1244.7 781.53 1246.27Z" />
				<path id="&lt;Path&gt;" class="shp15" d="M737.26 1197.9C736.92 1203.32 736.13 1212.11 734.56 1214.47C732.23 1217.98 707.13 1230.23 703.65 1229.06C701.39 1228.32 698.64 1225.86 696.99 1224.22C707.57 1219.65 717.74 1215.72 721.15 1213.02C729.18 1206.66 725.47 1194.29 725.25 1193.53C726.48 1196.06 731.12 1197.48 737.26 1197.9Z" />
				<path id="&lt;Path&gt;" class="shp15" d="M781.53 1246.27L667.75 1246.27C667.18 1244.26 667.94 1242.22 669.66 1240.16L781.31 1240.16C781.41 1242.66 781.48 1244.7 781.53 1246.27Z" />
				<path id="&lt;Path&gt;" class="shp14" d="M660.75 1204.26C654.99 1219.45 649.61 1231.06 644.62 1239.1C641.65 1243.91 638.82 1247.03 636.83 1246.27C629.83 1243.64 559.51 1183.85 566.24 1179.48C567.22 1178.84 568.79 1178.4 570.76 1178.16C576.87 1177.37 587.01 1178.23 596.39 1179.19C604.45 1180.02 611.93 1180.93 615.84 1180.93C622.45 1180.93 626.19 1179.96 627.06 1178.01C627.28 1179.16 629.15 1181.35 631.92 1184C640.61 1192.25 658.1 1204.92 660.75 1204.26Z" />
				<path id="&lt;Path&gt;" class="shp15" d="M631.92 1184C617.02 1193.87 601.47 1187.93 598.41 1185.67C596.15 1184.02 596.15 1180.95 596.39 1179.19C604.45 1180.02 611.93 1180.93 615.84 1180.93C622.45 1180.93 626.19 1179.96 627.06 1178.01C627.28 1179.16 629.15 1181.35 631.92 1184Z" />
				<path id="&lt;Path&gt;" class="shp15" d="M644.62 1239.1C641.65 1243.91 638.82 1247.03 636.83 1246.27C629.83 1243.64 559.51 1183.85 566.24 1179.48C567.22 1178.84 568.79 1178.4 570.76 1178.16L644.62 1239.1Z" />
				<path id="&lt;Path&gt;" class="shp12" d="M854.58 873.95C849.08 881.61 839.23 893.3 831.13 892.12C830.84 892.07 830.52 892.02 830.12 891.95C814.66 889.22 723.68 866.41 719.38 865.55C715.01 864.69 684.39 864.4 686.14 861.18C687.88 857.97 705.39 847.78 710.05 848.02C714.72 848.27 733.11 853.6 751.48 853.01C763.74 852.63 785.91 852.63 817.99 853.01L820.33 848.98L823.77 843.04C822.81 860.86 844.29 875.4 854.58 873.95Z" />
				<path id="&lt;Path&gt;" class="shp10" d="M854.58 940.39C851.79 955.27 855.83 965.19 866.72 970.15" />
				<path id="&lt;Path&gt;" class="shp10" d="M760.24 1188.03C738.46 1084.69 729.29 1028.25 732.75 1018.72C736.21 1009.19 773.96 989.06 846.01 958.33" />
				<path id="&lt;Path&gt;" class="shp16" d="M939.37 965.34C939.37 967.09 921.86 1007.92 907.18 1013.76C897.39 1017.66 863 1017.46 804 1013.17L760.24 1041.78L769.4 1127.97C757.08 1062.34 750.91 1027.38 750.91 1023.09C750.91 1017.59 873.14 982.46 905.36 945.7C913.77 947.02 921.03 947.93 927.11 948.42C935.28 958.52 939.37 964.16 939.37 965.34Z" />
				<path id="&lt;Path&gt;" class="shp13" d="M881.74 860.89C874.15 871.64 861.92 885.3 853.33 897.67C854.29 895.51 855.29 893.18 856.37 890.65C862.12 877.12 862.14 848.27 862.12 823.39L888.32 806.06C892.1 831.04 889.91 849.31 881.74 860.89Z" />
				<path id="&lt;Path&gt;" class="shp17" d="M859.37 870.64C858.24 871.67 857.09 872.7 855.93 873.66C855.51 873.8 855.07 873.9 854.58 873.95C844.29 875.4 822.81 860.86 823.77 843.04C823.84 841.71 824.89 839.06 826.61 835.6C835.4 817.87 861.85 778.41 866.71 780.23C878.04 781.98 885.24 790.59 888.32 806.06C892.64 827.84 877.05 854.26 859.37 870.64Z" />
				<path id="&lt;Path&gt;" class="shp13" d="M919.55 947.64C915.82 947.2 910.93 946.56 905.36 945.7C890.87 943.44 871.84 939.58 856.86 933.45C870.07 932.98 898.34 924.29 901.75 859.59C903.3 871.69 905.63 884.24 908.87 897.08C913.22 914.15 917.32 932.14 919.55 947.64Z" />
				<path id="&lt;Path&gt;" class="shp13" d="M912.58 734.21C911.23 735.78 910.17 737.21 909.36 738.41C904.08 741.16 898.98 744.5 895.81 747.1C893.6 744.67 891.56 743.72 889.64 743.49L901.28 728.83C904.82 730.97 908.77 732.86 912.58 734.21Z" />
				<path id="&lt;Path&gt;" class="shp13" d="M854.58 873.95C849.08 881.61 839.23 893.3 831.13 892.12C830.84 892.07 830.52 892.02 830.12 891.95C820.11 877.46 819.74 858.48 820.33 848.98L823.77 843.04C822.81 860.86 844.29 875.4 854.58 873.95Z" />
				<path id="&lt;Path&gt;" class="shp13" d="M940.28 697.38C939.24 699.74 938.07 702.19 936.74 704.7C933.23 711.4 932.74 718.08 932.15 723.61C930.97 722.7 929.77 721.86 928.56 721.15C920.98 725.67 915.87 730.36 912.58 734.21L912.55 734.24C901.85 730.41 890.04 722.21 889.3 717.37C888.25 710.37 896.77 698.39 889.3 696.94C884.32 695.97 880.49 699.67 877.81 708.04C871.67 708.68 869.49 698.39 859.42 698.39C857.99 698.39 856.59 698.58 855.24 698.93C850.51 700.11 846.36 703.03 843.7 705.29C851.27 694.66 860.98 690.42 872.85 692.57C871.11 689.26 866.25 687.8 858.26 688.2C883.36 680.02 899.39 683.24 907.13 692.27C913.44 699.66 928.24 708.8 940.28 697.38Z" />
			</g>
			<g id="CHAIR">
				<path id="&lt;Path&gt;" class="shp8" d="M991.3 1041.78L903.76 1041.78C950.06 1028.16 973.2 975.45 973.2 883.65C973.2 881.88 973.2 880.14 973.18 878.4C972.47 786.37 952.8 735.61 928.56 721.15C936.15 716.66 946.24 712.36 959.58 709.39C965.39 708.06 971.8 707.01 978.9 706.27C1038.84 700.16 1086.72 723.65 1092.41 750.25C1098.09 776.84 1063.05 1041.78 991.3 1041.78Z" />
				<path id="&lt;Path&gt;" class="shp7" d="M973.2 883.65C973.2 975.45 950.06 1028.16 903.76 1041.78L760.24 1041.78L766.21 1037.53L804 1013.17L879.85 1007.92C883.92 991 895.02 990.44 911.94 988.67C921.79 987.66 922.74 971.04 919.75 949.06C917.56 933.25 913.34 914.66 908.87 897.08C905.63 884.24 903.3 871.69 901.75 859.59C899.91 845.42 899.1 831.89 899.02 819.15C898.8 790.12 902.34 765.32 906.07 747.4C906.42 745.65 906.78 743.98 907.15 742.39C907.15 742.34 907.18 742.27 907.18 742.22C907.52 741.46 909.02 738.36 912.55 734.24L912.58 734.21C915.87 730.36 920.98 725.67 928.56 721.15C929.77 721.86 930.97 722.7 932.15 723.61C954.71 740.79 972.49 790.96 973.18 878.4C973.2 880.14 973.2 881.88 973.2 883.65Z" />
				<path id="&lt;Path&gt;" class="shp8" d="M945.51 1246.27L842.18 1246.27C838.65 1246.27 837.1 1241.8 839.9 1239.61L865.75 1219.38C877.22 1210.39 883.92 1196.62 883.92 1182.06L883.92 1041.78L903.76 1041.78L903.76 1182.06C903.76 1196.62 910.47 1210.39 921.96 1219.38L947.79 1239.61C950.59 1241.8 949.04 1246.27 945.51 1246.27Z" />
				<g id="&lt;Group&gt;" style="opacity: 0.251;mix-blend-mode: overlay">
					<g id="&lt;Group&gt;">
						<path id="&lt;Path&gt;" class="shp18" d="M1024.31 711.55C1024.81 712.84 1025.48 714.77 1026.3 717.35" />
						<path id="&lt;Path&gt;" class="shp19" d="M1029.78 729.3C1033.29 742.46 1037.85 762.97 1041.47 790.88C1050.86 863.34 1041.32 965.05 978.31 1029.48" />
						<path id="&lt;Path&gt;" class="shp19" d="M973.86 1033.88C972.39 1035.29 970.89 1036.68 969.36 1038.05" />
					</g>
				</g>
				<path id="&lt;Path&gt;" class="shp16" d="M903.76 1041.78L903.76 1080.08C896.89 1083.67 889.91 1086.42 883.92 1088.43L883.92 1041.78L903.76 1041.78Z" />
				<path id="&lt;Path&gt;" class="shp16" d="M931.19 982.26C926.53 996.85 897.38 994.23 893.84 1005.02C886.34 1027.91 882.18 1017.84 853.33 1020.76C836.83 1022.43 824.85 1033.01 817.63 1041.78L760.24 1041.78L766.21 1037.53L804 1013.17L879.85 1007.92C883.92 991 895.02 990.44 911.94 988.67C921.79 987.66 922.74 971.04 919.75 949.06C917.56 933.25 913.34 914.66 908.87 897.08C905.63 884.24 903.3 871.69 901.75 859.59C899.91 845.42 899.1 831.89 899.02 819.15C910.25 877.63 934.65 971.46 931.19 982.26Z" />
				<path id="&lt;Path&gt;" class="shp16" d="M973.2 883.65C973.2 881.88 973.2 880.14 973.18 878.4C972.47 786.37 952.8 735.61 928.56 721.15C936.15 716.66 946.24 712.36 959.58 709.39C955.57 715.16 951.4 723.83 953.36 733.08C956.87 749.46 996.55 812.47 981.38 913.41C970.43 986.24 974.06 1024.13 985.5 1041.78L903.76 1041.78C950.06 1028.16 973.2 975.45 973.2 883.65Z" />
			</g>
			<path id="&lt;Path&gt;" class="shp13" d="M472.37 808.64C472.32 811.83 472.02 814.85 471.44 817.53L443.27 817.53C435 812.03 421.49 801.15 413.39 784.82C420.93 793.02 433.79 803.01 446.91 806.06C458.35 808.71 466.87 807.58 472.37 808.64Z" />
			<g id="PLANT TABLE">
				<path id="&lt;Path&gt;" class="shp4" d="M537.78 696.82C534.64 708.23 520.22 730.38 507.06 754.1C492.67 779.98 479.81 807.7 484.84 825.31C486.09 829.73 486.66 832.97 486.66 835.3C486.71 842.96 480.89 840.58 475.02 836.24C471.03 833.27 467.01 829.63 462.96 825.31L463.41 791.18C450.51 779.33 449.35 760.44 459.94 734.51C460.95 732.05 462.1 729.5 463.41 726.85C485.28 682.65 518.09 636.27 487.03 623.13C529.92 620.5 544.36 672.92 537.78 696.82Z" />
				<g id="&lt;Group&gt;" style="opacity: 0.529;mix-blend-mode: overlay">
					<path id="&lt;Path&gt;" class="shp20" d="M487.03 623.13C495.06 624.88 502.06 630.26 506.5 637.13C507.7 638.81 508.55 640.69 509.5 642.51C510.22 644.43 511.13 646.3 511.62 648.3C512.19 650.27 512.75 652.25 513.04 654.29L513.58 657.33L513.77 660.43C513.59 668.74 510.96 676.67 508.22 684.36C505.36 692.06 502.06 699.57 498.65 707.01C491.82 721.91 484.45 736.54 477.95 751.53C474.74 759.02 471.65 766.6 469.37 774.38C468.21 778.27 467.33 782.22 466.82 786.18C466.32 790.13 466.36 794.19 467.62 797.77L467.63 797.81C467.85 798.45 467.52 799.15 466.88 799.37C466.24 799.6 465.54 799.26 465.31 798.62C465.31 798.62 465.31 798.61 465.3 798.6C463.89 794.4 463.97 790.03 464.53 785.9C465.12 781.76 466.08 777.71 467.31 773.77C469.74 765.86 472.94 758.28 476.27 750.78C482.98 735.81 490.53 721.28 497.54 706.5C501.03 699.11 504.42 691.66 507.36 684.04C510.18 676.42 512.89 668.57 513.15 660.43L513 657.4L512.51 654.39C512.25 652.36 511.72 650.39 511.17 648.43C510.72 646.44 509.83 644.59 509.15 642.67C508.23 640.85 507.41 638.98 506.24 637.3C501.93 630.44 495.04 624.98 487.03 623.13Z" />
				</g>
				<path id="&lt;Path&gt;" class="shp17" d="M518.09 765.79C504.98 800.36 518.09 826.59 498.4 830.32C489.38 832.04 485.41 825.36 483.76 817.6C482.45 811.48 482.23 804.86 483.1 797.73C485.32 792.04 488.78 786.42 493.46 780.89C499.18 774.14 507.31 767.56 518.09 765.79Z" />
				<path id="&lt;Path&gt;" class="shp8" d="M472.37 808.64C472.29 816.69 470.48 823.52 466.75 827.1C466.38 827.47 466.01 827.79 465.66 828.06C459.46 833.08 454.38 831 450.42 821.8C433.92 813.66 421.57 801.34 413.39 784.82C403.98 765.79 401.9 739.32 424.02 705.29C427.26 729.52 440.55 746.02 453.71 761.69C453.71 761.71 453.71 761.71 453.71 761.71C455.35 763.68 456.97 765.59 458.59 767.53C467.7 778.46 472.49 795.25 472.37 808.64Z" />
				<g id="&lt;Group&gt;" style="opacity: 0.529;mix-blend-mode: overlay">
					<path id="&lt;Path&gt;" class="shp20" d="M424.01 705.29C421.87 715.71 421.35 726.45 422.34 737.01C423.46 747.53 426.35 757.98 432.07 766.89C437.57 775.95 445.21 783.4 452.13 791.54C455.58 795.63 458.89 799.96 461.21 804.94C463.56 809.89 464.63 815.52 464.18 821.04C464.13 821.71 463.53 822.22 462.86 822.16C462.18 822.11 461.68 821.52 461.73 820.84C461.73 820.84 461.74 820.82 461.74 820.82C462.24 815.71 461.37 810.54 459.25 805.82C457.16 801.09 454.04 796.81 450.71 792.72C444.03 784.55 436.43 776.84 431.02 767.53C425.37 758.34 422.65 747.66 421.73 737.06C420.94 726.42 421.67 715.67 424.01 705.29Z" />
				</g>
				<g id="&lt;Group&gt;" style="opacity: 0.251;mix-blend-mode: overlay">
					<path id="&lt;Path&gt;" class="shp20" d="M518.1 765.79C514.34 770.14 510.84 774.71 507.5 779.37C504.18 784.06 501 788.84 498.15 793.81C492.47 803.71 487.64 814.32 486.05 825.48L486.05 825.52C485.95 826.19 485.33 826.66 484.66 826.56C483.99 826.47 483.52 825.85 483.62 825.17C483.62 825.16 483.62 825.14 483.62 825.13C485.72 813.48 491.03 802.96 497.1 793.18C500.15 788.27 503.51 783.58 507 779.01C510.52 774.45 514.18 770 518.1 765.79Z" />
				</g>
				<path id="&lt;Path&gt;" class="shp8" d="M510.13 826.17L501.73 877.73C501.32 879.89 499.43 881.46 497.22 881.46L444.89 881.46C442.68 881.46 440.79 879.89 440.37 877.73L433.55 835.87L431.98 826.17C431.46 823.34 433.62 820.74 436.49 820.74L505.61 820.74C508.49 820.74 510.65 823.34 510.13 826.17Z" />
				<path id="&lt;Path&gt;" class="shp7" d="M518.09 836.68L424.02 836.68L426.5 822.63C427.04 819.69 429.59 817.53 432.59 817.53L509.54 817.53C512.51 817.53 515.09 819.69 515.61 822.63L518.09 836.68Z" />
				<path id="&lt;Path&gt;" class="shp13" d="M483.1 797.73C482.23 804.82 482.44 811.42 483.74 817.53L471.44 817.53C472.02 814.85 472.32 811.83 472.37 808.64C472.49 795.25 467.7 778.46 458.59 767.53C456.97 765.59 455.35 763.68 453.71 761.71C453.71 761.71 453.71 761.71 453.71 761.69C453.9 754.15 455.62 745.11 459.94 734.51C460.66 746.91 463.7 768.47 476.08 770.75C485.48 772.47 497.73 763.14 507.06 754.1C502.13 762.97 497.39 772.05 493.46 780.89C488.78 786.42 485.32 792.04 483.1 797.73Z" />
				<path id="&lt;Path&gt;" class="shp13" d="M476.12 881.46L444.89 881.46C442.68 881.46 440.79 879.89 440.37 877.73L433.67 836.68L460.66 836.68C459.99 842.42 459.18 853.15 461.22 861.48C462.82 868.08 468.61 876.58 476.12 881.46Z" />
			</g>
			<g id="LANGUAGE">
				<path id="&lt;Path&gt;" class="shp6" d="M712.74 456.73L578.92 456.73C572.32 456.73 566.96 451.38 566.96 444.77L566.96 345.25C566.96 338.64 572.32 333.28 578.92 333.28L712.74 333.28C719.35 333.28 724.71 338.64 724.71 345.25L724.71 444.77C724.71 451.38 719.35 456.73 712.74 456.73Z" />
				<g id="&lt;Group&gt;">
					<text id="JS" style="transform: matrix(0.833,0,0,0.833,601.334,423.967)" >
						<tspan x="0" y="0" class="txt21">JS</tspan><tspan  y="0" class="txt21">
</tspan>
					</text>
				</g>
			</g>
			<g id="{ }">
				<g id="&lt;Group&gt;">
					<g id="&lt;Group&gt;">
						<path id="&lt;Compound Path&gt;" class="shp6" d="M773.75 343.86C778.75 343.86 779.94 340.49 779.94 337.49C779.94 334.85 779.66 332.3 779.39 329.75C779.12 327.02 778.84 324.56 778.84 321.74C778.84 313.54 783.85 310.09 790.32 310.09L791.41 310.09L791.41 314.82L790.04 314.82C786.22 314.82 784.67 317.55 784.67 321.65C784.67 324.11 784.95 326.38 785.22 328.57C785.4 330.93 785.67 333.12 785.67 335.3C785.76 342.4 783.31 344.86 779.39 345.96L779.39 346.14C783.31 347.32 785.76 349.78 785.67 356.97C785.67 359.25 785.4 361.52 785.22 363.8C784.95 366.08 784.67 368.35 784.67 370.81C784.67 374.91 786.04 377.73 790.13 377.73L791.41 377.73L791.41 382.46L790.23 382.46C784.22 382.46 778.84 379.46 778.84 370.81C778.84 368.08 779.12 365.35 779.39 362.71C779.66 360.07 779.94 357.43 779.94 354.88C779.94 351.96 778.75 348.41 773.75 348.41L773.75 343.86Z" />
						<path id="&lt;Compound Path&gt;" class="shp6" d="M866.56 348.41C861.55 348.41 860.37 351.96 860.37 354.88C860.37 357.43 860.64 360.07 860.91 362.71C861.19 365.35 861.46 368.08 861.46 370.81C861.46 379.46 856.09 382.46 850.08 382.46L848.9 382.46L848.9 377.73L850.17 377.73C854.27 377.27 855.63 374.91 855.63 370.81C855.63 368.35 855.36 366.08 855.18 363.8C854.9 361.52 854.63 359.25 854.63 356.97C854.54 349.78 857 347.32 860.91 346.14L860.91 345.96C857 344.86 854.54 342.4 854.63 335.3C854.63 333.12 854.9 330.93 855.18 328.57C855.36 326.38 855.63 324.11 855.63 321.65C855.63 317.55 854.08 315.28 850.26 314.82L848.9 314.82L848.9 310.09L849.99 310.09C856.45 310.09 861.46 313.54 861.46 321.74C861.46 324.56 861.19 327.02 860.91 329.75C860.64 332.3 860.37 334.85 860.37 337.49C860.37 340.49 861.55 343.86 866.56 343.86L866.56 348.41Z" />
					</g>
				</g>
				<path id="&lt;Path&gt;" class="shp2" d="M820.15 363.79L804.99 355.03L804.99 337.52L820.15 328.76L835.32 337.52L835.32 355.03L820.15 363.79Z" />
			</g>
			<g id="CICLE">
				<path id="&lt;Path&gt;" class="shp2" d="M949.98 443.94C949.68 444.54 948.94 444.79 948.33 444.49C935.02 437.86 919.01 440.48 908.5 451C895.48 464.01 895.08 484.87 907.19 498.43L907.81 493.21C907.89 492.53 908.5 492.05 909.17 492.13C909.85 492.21 910.33 492.82 910.25 493.5L909.27 501.69C909.23 502.03 909.06 502.32 908.81 502.51C908.57 502.7 908.25 502.81 907.91 502.76L899.44 501.76C898.77 501.68 898.29 501.07 898.37 500.39C898.45 499.72 899.06 499.24 899.73 499.32L905.29 499.98C892.39 485.46 892.85 463.17 906.76 449.26C918.03 438 935.17 435.19 949.43 442.29C950.03 442.59 950.28 443.33 949.98 443.94Z" />
				<path id="&lt;Path&gt;" class="shp2" d="M917 508.59C917.3 507.99 918.04 507.73 918.65 508.04C931.96 514.66 947.97 512.05 958.48 501.53C971.5 488.52 971.9 467.65 959.79 454.1L959.17 459.32C959.09 459.99 958.48 460.47 957.81 460.39C957.13 460.31 956.65 459.7 956.73 459.03L957.71 450.84C957.75 450.5 957.92 450.21 958.17 450.02C958.41 449.82 958.73 449.72 959.07 449.76L967.54 450.77C968.21 450.85 968.69 451.46 968.61 452.13C968.53 452.81 967.92 453.29 967.25 453.21L961.69 452.55C974.59 467.06 974.13 489.36 960.22 503.26C948.95 514.53 931.81 517.33 917.55 510.24C916.95 509.93 916.7 509.2 917 508.59Z" />
			</g>
			<g id="ROWS RIGHT">
				<path id="&lt;Path&gt;" class="shp2" d="M1245.93 579.16L1023.71 579.16C1019.66 579.16 1016.38 575.88 1016.38 571.83C1016.38 567.78 1019.66 564.49 1023.71 564.49L1245.93 564.49C1249.99 564.49 1253.27 567.78 1253.27 571.83C1253.27 575.88 1249.99 579.16 1245.93 579.16Z" />
				<path id="&lt;Path&gt;" class="shp4" d="M1166.58 611.04L1023.71 611.04C1019.66 611.04 1016.38 607.76 1016.38 603.71C1016.38 599.66 1019.66 596.37 1023.71 596.37L1166.58 596.37C1170.63 596.37 1173.92 599.66 1173.92 603.71C1173.92 607.76 1170.63 611.04 1166.58 611.04Z" />
				<path id="&lt;Path&gt;" class="shp4" d="M1166.58 645.27L1023.71 645.27C1019.66 645.27 1016.38 641.99 1016.38 637.94C1016.38 633.88 1019.66 630.6 1023.71 630.6L1166.58 630.6C1170.63 630.6 1173.92 633.88 1173.92 637.94C1173.92 641.99 1170.63 645.27 1166.58 645.27Z" />
			</g>
			<g id="ROWS LEFT">
				<path id="&lt;Path&gt;" class="shp4" d="M458 457.3L342.57 457.3C338.52 457.3 335.24 454.02 335.24 449.97C335.24 445.92 338.52 442.63 342.57 442.63L458 442.63C462.05 442.63 465.33 445.92 465.33 449.97C465.33 454.02 462.05 457.3 458 457.3Z" />
				<path id="&lt;Path&gt;" class="shp2" d="M414.42 489.18L342.57 489.18C338.52 489.18 335.24 485.9 335.24 481.85C335.24 477.8 338.52 474.51 342.57 474.51L414.42 474.51C418.47 474.51 421.75 477.8 421.75 481.85C421.75 485.9 418.47 489.18 414.42 489.18Z" />
				<path id="&lt;Path&gt;" class="shp2" d="M414.42 523.41L342.57 523.41C338.52 523.41 335.24 520.13 335.24 516.08C335.24 512.02 338.52 508.74 342.57 508.74L414.42 508.74C418.47 508.74 421.75 512.02 421.75 516.08C421.75 520.13 418.47 523.41 414.42 523.41Z" />
			</g>
			<g id="PLANT RIGHT">
				<path id="&lt;Path&gt;" class="shp17" d="M1145.82 988.96C1138.63 1009.84 1130.03 1028.05 1121.04 1044.51C1089.98 1101.25 1053.91 1137.35 1052.56 1190.26C1045.1 1157.03 1044.36 1121.48 1050.35 1083.62C1055.39 1051.72 1066.78 1017.64 1090.08 988.96C1133.31 935.8 1151.73 885.03 1145.33 836.68C1167 876.34 1167.17 927.1 1145.82 988.96Z" />
				<g id="&lt;Group&gt;" style="opacity: 0.251;mix-blend-mode: overlay">
					<path id="&lt;Path&gt;" class="shp20" d="M1069.41 1128.19C1068.46 1121.58 1068.72 1115.14 1069.33 1108.68C1069.97 1102.23 1071.13 1095.85 1072.78 1089.61C1076 1077.1 1080.78 1065.04 1086.58 1053.55C1089.38 1047.74 1092.72 1042.23 1095.98 1036.69L1106.42 1020.56C1113.08 1009.73 1118.69 998.23 1123.41 986.38C1128.18 974.54 1132.19 962.39 1135.55 950.06C1138.95 937.74 1141.74 925.25 1143.92 912.65C1146.12 900.06 1147.73 887.35 1148.53 874.59C1148.91 868.2 1149.09 861.8 1148.81 855.41C1148.65 852.22 1148.45 849.02 1147.93 845.87C1147.4 842.73 1146.82 839.53 1145.33 836.68C1146.87 839.51 1147.51 842.71 1148.08 845.84C1148.66 849 1148.91 852.2 1149.12 855.4C1149.51 861.8 1149.43 868.22 1149.16 874.62C1148.6 887.43 1147.09 900.19 1145.03 912.84C1142.97 925.49 1140.32 938.06 1137.04 950.46C1133.79 962.87 1129.9 975.13 1125.23 987.1C1120.6 999.08 1115.07 1010.74 1108.45 1021.81L1098.1 1037.99C1094.89 1043.48 1091.59 1048.94 1088.85 1054.69C1083.14 1066.05 1078.47 1077.96 1075.34 1090.26C1073.74 1096.4 1072.61 1102.65 1071.92 1108.94C1071.26 1115.2 1071 1121.66 1071.83 1127.74L1071.84 1127.85C1071.93 1128.52 1071.46 1129.14 1070.79 1129.23C1070.13 1129.32 1069.51 1128.86 1069.41 1128.19Z" />
				</g>
				<path id="&lt;Path&gt;" class="shp13" d="M1121.04 1044.51C1089.98 1101.25 1053.91 1137.35 1052.56 1190.26C1045.1 1157.03 1044.36 1121.48 1050.35 1083.62C1070.49 1075.39 1098.8 1061.99 1121.04 1044.51Z" />
				<path id="&lt;Path&gt;" class="shp4" d="M1039.72 1246.27C1001.21 1141.53 1137.74 1056.94 1189.09 997.29C1197.26 1048.49 1155.25 1111.79 1101.57 1159.64C1065.78 1191.54 1055.45 1220.42 1070.57 1246.28L1039.72 1246.27Z" />
				<g id="&lt;Group&gt;" style="opacity: 0.251;mix-blend-mode: overlay">
					<path id="&lt;Path&gt;" class="shp20" d="M1189.09 997.29C1183.96 1008.59 1177.1 1019.02 1169.7 1028.96C1162.23 1038.86 1154.02 1048.2 1145.27 1057C1136.6 1065.89 1127.02 1073.85 1117.54 1081.8C1108.1 1089.8 1099.56 1098.82 1091.94 1108.55C1076.71 1127.99 1064.79 1150.13 1057.62 1173.74C1054.12 1185.55 1051.71 1197.74 1051.37 1210.03C1051.01 1222.27 1052.57 1234.72 1057.47 1245.89C1057.75 1246.51 1057.47 1247.24 1056.85 1247.51C1056.23 1247.79 1055.5 1247.51 1055.23 1246.89L1055.22 1246.87C1050.23 1235.21 1048.75 1222.42 1049.22 1209.96C1049.67 1197.44 1052.22 1185.11 1055.86 1173.21C1063.31 1149.41 1075.49 1127.22 1090.97 1107.78C1098.72 1098.07 1107.39 1089.06 1116.94 1081.1C1126.52 1073.21 1136.1 1065.38 1144.83 1056.57C1153.64 1047.86 1161.92 1038.6 1169.46 1028.78C1176.92 1018.91 1183.87 1008.54 1189.09 997.29Z" />
				</g>
			</g>
			<g id="PLANT LEFT">
				<path id="&lt;Path&gt;" class="shp17" d="M300.17 965.34C281.5 948.32 267.2 918.54 257.29 875.99C314.47 924.47 350.06 970.29 364.06 1013.47L300.17 965.34Z" />
				<g id="&lt;Group&gt;" style="opacity: 0.251;mix-blend-mode: overlay">
					<path id="&lt;Path&gt;" class="shp20" d="M257.29 875.99C269.22 893.07 280.89 910.33 292.24 927.8C297.92 936.54 303.47 945.35 308.87 954.28C314.24 963.22 319.49 972.24 323.85 981.84C324.13 982.46 323.86 983.19 323.24 983.47C322.62 983.75 321.89 983.48 321.61 982.86C321.61 982.85 321.61 982.85 321.6 982.84L321.59 982.8C317.52 973.35 312.45 964.22 307.28 955.21C302.08 946.21 296.7 937.29 291.21 928.45C280.2 910.78 268.88 893.3 257.29 875.99Z" />
				</g>
				<path id="&lt;Path&gt;" class="shp4" d="M381.71 1088.43L341.4 1029.63L341.17 1029.31C267.17 1000.66 233.95 954.52 241.51 890.89C246.49 917.34 273.43 939 302.33 958.71C324.06 973.54 346.9 987.32 362.32 1001.22C386.23 1022.81 392.7 1051.88 381.71 1088.43Z" />
				<g id="&lt;Group&gt;" style="opacity: 0.251;mix-blend-mode: overlay">
					<path id="&lt;Path&gt;" class="shp20" d="M241.51 890.89C241.58 901.53 244.67 911.94 249.14 921.5C253.81 931 260.15 939.66 267.69 947.06C275.24 954.5 283.94 960.61 292.82 966.37C301.7 972.16 310.73 977.74 319.51 983.73C337.02 995.62 353.8 1009.51 365.53 1027.53C377.45 1045.4 382.94 1067.08 382.94 1088.44C382.94 1089.11 382.4 1089.67 381.72 1089.67C381.04 1089.67 380.49 1089.13 380.49 1088.45L380.49 1088.43C380.68 1067.45 375.52 1046.21 363.99 1028.52C352.63 1010.7 336.15 996.76 318.81 984.74C310.12 978.69 301.16 973.02 292.32 967.14C283.48 961.28 274.78 955.05 267.26 947.5C259.74 939.97 253.46 931.21 248.86 921.63C244.46 911.99 241.48 901.53 241.51 890.89Z" />
				</g>
			</g>
			<path id="FLOOR" class="shp0" d="M1152.62 1288.87L406.79 1288.87C395.03 1288.87 385.49 1279.33 385.49 1267.57C385.49 1255.8 395.03 1246.27 406.79 1246.27L1152.62 1246.27C1164.38 1246.27 1173.92 1255.8 1173.92 1267.57C1173.92 1279.33 1164.38 1288.87 1152.62 1288.87Z" />
		</g>
	</g>
</svg>